<?xml version="1.0" encoding="UTF-8"?>
<svg width="1920" height="1080" viewBox="0 0 1920 1080" fill="none" xmlns="http://www.w3.org/2000/svg">
  <defs>
    <linearGradient id="g0" x1="0" y1="0" x2="1920" y2="1080" gradientUnits="userSpaceOnUse">
      <stop offset="0" stop-color="#0B1020"/>
      <stop offset="0.55" stop-color="#0B1B2E"/>
      <stop offset="1" stop-color="#140B2E"/>
    </linearGradient>
    <radialGradient id="r1" cx="0" cy="0" r="1" gradientUnits="userSpaceOnUse" gradientTransform="translate(430 380) rotate(35) scale(720 520)">
      <stop stop-color="#60A5FA" stop-opacity="0.55"/>
      <stop offset="1" stop-color="#60A5FA" stop-opacity="0"/>
    </radialGradient>
    <radialGradient id="r2" cx="0" cy="0" r="1" gradientUnits="userSpaceOnUse" gradientTransform="translate(1460 520) rotate(-20) scale(760 560)">
      <stop stop-color="#A78BFA" stop-opacity="0.55"/>
      <stop offset="1" stop-color="#A78BFA" stop-opacity="0"/>
    </radialGradient>
    <radialGradient id="r3" cx="0" cy="0" r="1" gradientUnits="userSpaceOnUse" gradientTransform="translate(980 880) rotate(0) scale(900 560)">
      <stop stop-color="#22C55E" stop-opacity="0.25"/>
      <stop offset="1" stop-color="#22C55E" stop-opacity="0"/>
    </radialGradient>
    <filter id="blur" x="-20%" y="-20%" width="140%" height="140%" color-interpolation-filters="sRGB">
      <feGaussianBlur stdDeviation="40"/>
    </filter>
  </defs>

  <rect width="1920" height="1080" fill="url(#g0)"/>

  <g filter="url(#blur)">
    <ellipse cx="430" cy="380" rx="640" ry="420" fill="url(#r1)"/>
    <ellipse cx="1460" cy="520" rx="700" ry="460" fill="url(#r2)"/>
    <ellipse cx="980" cy="880" rx="860" ry="520" fill="url(#r3)"/>
  </g>

  <g opacity="0.28">
    <path d="M0 780C220 720 420 760 640 820C860 880 1040 860 1280 800C1520 740 1700 720 1920 760V1080H0V780Z" fill="#0A0F1F"/>
    <path d="M0 820C240 760 460 800 680 860C900 920 1100 900 1340 840C1580 780 1740 770 1920 800V1080H0V820Z" fill="#070B16"/>
  </g>

  <g opacity="0.25">
    <circle cx="220" cy="210" r="2" fill="#FFFFFF"/>
    <circle cx="510" cy="160" r="1.5" fill="#FFFFFF"/>
    <circle cx="820" cy="260" r="1.5" fill="#FFFFFF"/>
    <circle cx="1220" cy="180" r="2" fill="#FFFFFF"/>
    <circle cx="1600" cy="240" r="1.5" fill="#FFFFFF"/>
    <circle cx="1760" cy="140" r="1.5" fill="#FFFFFF"/>
    <circle cx="980" cy="120" r="1.5" fill="#FFFFFF"/>
  </g>
</svg>
